<?xml version="1.0" standalone="no"?><svg xmlns="http://www.w3.org/2000/svg" viewBox="0 0 1440 320"><path fill="#19395a" fill-opacity="1" d="M0,160L34.3,181.3C68.6,203,137,245,206,218.7C274.3,192,343,96,411,64C480,32,549,64,617,85.3C685.7,107,754,117,823,106.7C891.4,96,960,64,1029,64C1097.1,64,1166,96,1234,138.7C1302.9,181,1371,235,1406,261.3L1440,288L1440,0L1405.7,0C1371.4,0,1303,0,1234,0C1165.7,0,1097,0,1029,0C960,0,891,0,823,0C754.3,0,686,0,617,0C548.6,0,480,0,411,0C342.9,0,274,0,206,0C137.1,0,69,0,34,0L0,0Z"></path></svg>