<?xml version="1.0" standalone="no"?><svg xmlns="http://www.w3.org/2000/svg" viewBox="0 0 1440 320"><path fill="#19395a" fill-opacity="1" d="M0,64L40,64C80,64,160,64,240,90.7C320,117,400,171,480,170.7C560,171,640,117,720,128C800,139,880,213,960,224C1040,235,1120,181,1200,149.3C1280,117,1360,107,1400,101.3L1440,96L1440,320L1400,320C1360,320,1280,320,1200,320C1120,320,1040,320,960,320C880,320,800,320,720,320C640,320,560,320,480,320C400,320,320,320,240,320C160,320,80,320,40,320L0,320Z"></path></svg>